<?xml version="1.0" encoding="UTF-8"?>
<svg id="Layer_1" xmlns="http://www.w3.org/2000/svg" version="1.1" viewBox="0 0 48 48">
  <!-- Generator: Adobe Illustrator 30.2.1, SVG Export Plug-In . SVG Version: 2.1.1 Build 1)  -->
  <defs>
    <style>
      .st0 {
        fill: #69ba89;
      }
    </style>
  </defs>
  <path class="st0" d="M24,.3C10.9.3.3,10.9.3,24s1.2,8.4,3.2,11.9c.2,0,.4-.3.6-.3,1-.3,1.4.6,1.6.6.7-.8,1.7-.7,2.3,0,.6-.7,1.3-.9,2.1-.3.4-.5.6-.9,1.3-.8-.2-1,.6-1.3.9-2.1l-.2-.3c-.3,0-.5,0-.8,0-.4-.1-2-1.2-1.7-1.6,1-.5,2-.3,3,0,.3,0,.4-.6.8-.8.7-.5,2.2-.6,3.1-.3.8.3,1,1,1.9,1.3.8.2,2.2-.2,2.3.7,0,.6-2,1-2.6,1.1,0,1.2,1.3,1.6.5,3,1.1.6,1.1,1.9,0,2.6.9.7.7,1.7-.2,2.3.4.5.6,1.1.3,1.7,0,.2-.4.4-.4.5,0,.2.7.5.6,1.4,0,.8-.9,1-1,1.2,0,.2.2.5.2.8,0,.2,0,.3-.1.4,1.9.5,3.9.8,6,.8,13.1,0,23.7-10.6,23.7-23.7S37.1.3,24,.3ZM9.3,29c-2.2.8-3.8,2-5.7,3.2,0,0,0,.2-.2,0-.3-.5-.8-2.4-1-3.1C-1.4,12.4,14-2.1,30.4,2.8c1,.3,1.9.7,2.9,1.1,0,.1-.1.1-.2.2-1,.3-2.2.5-3.2.8-3.9,1.1-11.5,4.1-13.4,7.9-1,2-.4,3.1,1.1,4.5,1.6,1.5,6.1,4.1,4.3,6.8-1.9,2.8-9.5,4-12.7,5.2ZM33.2,44.3c-1.7.8-5.3,2-7.1,1.9-2.1,0-3.6-3.9-4-5.7-1.1-5.2,1.1-9.3,5.8-11.5,3-1.3,9.6-2.2,8.3-7-1.3-4.8-7.5-6.1-11-8.7-1.9-1.4-2.6-2.7-.4-4.2,2.8-2,6.8-3.1,10.1-4.2.3,0,.8.3,1,.5,1.8,1.1,3.6,2.7,4.9,4.3,9.6,11.2,5.6,28.6-7.7,34.6Z"/>
</svg>