<svg width="30" height="35" viewBox="0 0 30 35" fill="none" xmlns="http://www.w3.org/2000/svg">
<path d="M6.38688 34.0634C2.86079 34.0634 0 31.2026 0 27.6765V6.38688C0 2.86079 2.86079 0 6.38688 0H26.612C28.375 0 29.8054 1.4304 29.8054 3.19344V22.3541C29.8054 23.7446 28.9139 24.9288 27.6765 25.3679V29.8054C28.8541 29.8054 29.8054 30.7568 29.8054 31.9344C29.8054 33.112 28.8541 34.0634 27.6765 34.0634H6.38688ZM6.38688 25.5475C5.2093 25.5475 4.25792 26.4989 4.25792 27.6765C4.25792 28.8541 5.2093 29.8054 6.38688 29.8054H23.4186V25.5475H6.38688ZM12.7738 5.3224V8.51584H9.58032C8.99486 8.51584 8.51584 8.99486 8.51584 9.58032V11.7093C8.51584 12.2947 8.99486 12.7738 9.58032 12.7738H12.7738V20.2251C12.7738 20.8106 13.2528 21.2896 13.8382 21.2896H15.9672C16.5527 21.2896 17.0317 20.8106 17.0317 20.2251V12.7738H20.2251C20.8106 12.7738 21.2896 12.2947 21.2896 11.7093V9.58032C21.2896 8.99486 20.8106 8.51584 20.2251 8.51584H17.0317V5.3224C17.0317 4.73694 16.5527 4.25792 15.9672 4.25792H13.8382C13.2528 4.25792 12.7738 4.73694 12.7738 5.3224Z" fill="white" fill-opacity="0.8"/>
</svg>
