<svg width="163" height="69" viewBox="0 0 163 69" fill="none" xmlns="http://www.w3.org/2000/svg">
<g clip-path="url(#clip0_6_390)">
<path d="M75.6906 31.3124C75.9683 31.5118 76.4337 31.7303 77.0888 31.9681C77.7439 32.2058 78.4966 32.3247 79.3509 32.3247C80.2051 32.3247 80.8487 32.1809 81.3448 31.8933C81.8409 31.6057 82.2182 31.1628 82.4749 30.5684C82.7335 29.9721 82.902 29.232 82.9805 28.3481C83.0591 27.4642 83.0993 26.4269 83.0993 25.2343V14.4799H87.2059V25.2343C87.2059 26.843 87.1216 28.3079 86.9531 29.6289C86.7845 30.95 86.4283 32.0774 85.8824 33.0111C85.3365 33.9449 84.5473 34.6696 83.5169 35.1854C82.4845 35.7012 81.0958 35.96 79.3509 35.96C77.6059 35.96 76.0372 35.5229 74.7673 34.6486L75.6906 31.3124Z" fill="white"/>
<path d="M97.982 35.9294C96.7313 35.9294 95.6012 35.7166 94.5898 35.289C93.5785 34.8614 92.7147 34.2805 92.0002 33.5461C91.2858 32.8118 90.7361 31.9566 90.3492 30.9845C89.9623 30.0124 89.7688 28.9886 89.7688 27.9148C89.7688 26.8411 89.9565 25.7559 90.3338 24.7723C90.7112 23.7887 91.2571 22.9259 91.9715 22.18C92.6859 21.4361 93.5536 20.8436 94.5764 20.4065C95.5973 19.9693 96.7447 19.7507 98.0146 19.7507C99.2845 19.7507 100.42 19.9693 101.422 20.4065C102.424 20.8436 103.278 21.4303 103.981 22.1647C104.686 22.899 105.22 23.7542 105.588 24.7263C105.956 25.7003 106.138 26.7127 106.138 27.7653C106.138 28.0241 106.132 28.2715 106.122 28.5092C106.113 28.747 106.088 28.9464 106.048 29.1055H93.9942C94.0535 29.721 94.2029 30.2674 94.4404 30.7449C94.6779 31.2223 94.9863 31.6288 95.3637 31.9662C95.741 32.3037 96.1681 32.5625 96.6431 32.7408C97.1182 32.9192 97.6143 33.0093 98.1314 33.0093C98.9244 33.0093 99.6733 32.8156 100.378 32.4283C101.083 32.041 101.564 31.5291 101.822 30.8944L105.245 31.8474C104.669 33.038 103.751 34.0178 102.493 34.7828C101.232 35.5479 99.7288 35.9294 97.9839 35.9294H97.982ZM102.029 26.5152C101.93 25.3437 101.499 24.4061 100.734 23.7005C99.9702 22.9949 99.0431 22.6421 97.9514 22.6421C97.4151 22.6421 96.9151 22.7361 96.4478 22.9259C95.9804 23.1157 95.5705 23.3784 95.2123 23.7158C94.8561 24.0533 94.563 24.4598 94.3351 24.9372C94.1072 25.4146 93.9731 25.94 93.9329 26.5152H102.027H102.029Z" fill="white"/>
<path d="M114.47 35.9294C113.16 35.9294 111.88 35.7204 110.631 35.3043C109.381 34.8864 108.31 34.292 107.417 33.5174L108.906 31.0152C109.857 31.6901 110.784 32.202 111.689 32.5491C112.591 32.8961 113.489 33.0706 114.382 33.0706C115.175 33.0706 115.799 32.9211 116.257 32.6239C116.713 32.3267 116.941 31.8991 116.941 31.3431C116.941 30.787 116.672 30.3806 116.136 30.1217C115.6 29.8629 114.726 29.5657 113.518 29.2282C112.506 28.9502 111.643 28.6818 110.928 28.4229C110.214 28.1641 109.639 27.8727 109.202 27.5448C108.766 27.2169 108.448 26.8392 108.25 26.4116C108.051 25.9841 107.954 25.474 107.954 24.8777C107.954 24.084 108.107 23.3688 108.415 22.7322C108.724 22.0976 109.155 21.555 109.71 21.1082C110.265 20.6615 110.915 20.3183 111.66 20.0805C112.403 19.8428 113.211 19.7239 114.085 19.7239C115.255 19.7239 116.351 19.8926 117.373 20.2301C118.394 20.5675 119.333 21.114 120.185 21.8694L118.578 24.2834C117.785 23.6871 117.015 23.2518 116.272 22.9719C115.529 22.6939 114.79 22.5539 114.054 22.5539C113.38 22.5539 112.813 22.6939 112.357 22.9719C111.901 23.2499 111.673 23.6966 111.673 24.3121C111.673 24.5901 111.727 24.8183 111.836 24.9966C111.945 25.1749 112.12 25.3341 112.357 25.474C112.595 25.614 112.907 25.7482 113.294 25.8767C113.681 26.0071 114.161 26.1394 114.738 26.2793C115.809 26.5573 116.726 26.8354 117.49 27.1134C118.255 27.3914 118.879 27.7097 119.365 28.0663C119.852 28.4229 120.208 28.8371 120.436 29.303C120.664 29.7708 120.779 30.3307 120.779 30.9864C120.779 32.5165 120.214 33.7225 119.082 34.6064C117.952 35.4903 116.414 35.9313 114.47 35.9313V35.9294Z" fill="white"/>
<path d="M128.13 35.9294C126.523 35.9294 125.303 35.4136 124.47 34.3802C123.637 33.3467 123.219 31.8186 123.219 29.7919V20.0192H127.207V28.9272C127.207 31.3316 128.071 32.5318 129.797 32.5318C130.571 32.5318 131.319 32.2979 132.043 31.832C132.767 31.3661 133.357 30.6548 133.815 29.7018V20.0192H137.803V31.0421C137.803 31.46 137.878 31.7572 138.027 31.9356C138.177 32.1139 138.418 32.2136 138.757 32.2327V35.6284C138.36 35.707 138.027 35.7568 137.761 35.7779C137.493 35.7971 137.249 35.8067 137.031 35.8067C136.317 35.8067 135.736 35.6437 135.29 35.3159C134.844 34.988 134.581 34.5374 134.501 33.9603L134.411 32.7082C133.716 33.7801 132.823 34.5853 131.733 35.1222C130.641 35.6591 129.442 35.9275 128.132 35.9275L128.13 35.9294Z" fill="white"/>
<path d="M147.656 35.9294C146.346 35.9294 145.066 35.7204 143.817 35.3043C142.567 34.8864 141.496 34.292 140.603 33.5174L142.092 31.0152C143.043 31.6901 143.971 32.202 144.875 32.5491C145.777 32.8961 146.675 33.0706 147.568 33.0706C148.361 33.0706 148.985 32.9211 149.443 32.6239C149.899 32.3267 150.127 31.8991 150.127 31.3431C150.127 30.787 149.858 30.3806 149.322 30.1217C148.786 29.8629 147.912 29.5657 146.704 29.2282C145.692 28.9502 144.829 28.6818 144.114 28.4229C143.4 28.1641 142.825 27.8727 142.388 27.5448C141.952 27.2169 141.634 26.8392 141.436 26.4116C141.237 25.9841 141.14 25.474 141.14 24.8777C141.14 24.084 141.293 23.3688 141.601 22.7322C141.91 22.0976 142.341 21.555 142.896 21.1082C143.451 20.6615 144.101 20.3183 144.846 20.0805C145.589 19.8428 146.397 19.7239 147.271 19.7239C148.441 19.7239 149.537 19.8926 150.559 20.2301C151.582 20.5675 152.519 21.114 153.371 21.8694L151.764 24.2834C150.969 23.6871 150.201 23.2518 149.458 22.9719C148.715 22.6939 147.976 22.5539 147.24 22.5539C146.566 22.5539 145.999 22.6939 145.543 22.9719C145.087 23.2499 144.859 23.6966 144.859 24.3121C144.859 24.5901 144.913 24.8183 145.022 24.9966C145.131 25.1749 145.306 25.3341 145.543 25.474C145.781 25.614 146.093 25.7482 146.48 25.8767C146.867 26.0071 147.347 26.1394 147.924 26.2793C148.995 26.5573 149.912 26.8354 150.676 27.1134C151.441 27.3914 152.065 27.7097 152.551 28.0663C153.038 28.4229 153.394 28.8371 153.622 29.303C153.85 29.7708 153.965 30.3307 153.965 30.9864C153.965 32.5165 153.4 33.7225 152.268 34.6064C151.138 35.4903 149.6 35.9313 147.656 35.9313V35.9294Z" fill="white"/>
<path d="M159.836 28.3078C159.351 28.3078 158.915 28.2254 158.524 28.0605C158.133 27.8956 157.798 27.6713 157.522 27.3856C157.246 27.1018 157.032 26.7701 156.882 26.3943C156.733 26.0185 156.658 25.6216 156.658 25.2075C156.658 24.7933 156.731 24.3715 156.877 23.9919C157.022 23.6122 157.233 23.2767 157.511 22.9891C157.786 22.7015 158.123 22.4714 158.518 22.3027C158.913 22.1339 159.357 22.0496 159.847 22.0496C160.338 22.0496 160.778 22.1339 161.167 22.3027C161.554 22.4714 161.885 22.6976 162.157 22.9833C162.429 23.2671 162.636 23.5988 162.78 23.9746C162.922 24.3504 162.992 24.7435 162.992 25.1499C162.992 25.2496 162.992 25.3455 162.987 25.4375C162.983 25.5296 162.973 25.6063 162.958 25.6676H158.294C158.317 25.9054 158.374 26.1182 158.466 26.3023C158.558 26.4863 158.677 26.6436 158.823 26.7759C158.968 26.9062 159.133 27.0059 159.319 27.075C159.503 27.144 159.694 27.1785 159.895 27.1785C160.202 27.1785 160.493 27.1037 160.765 26.9542C161.037 26.8046 161.223 26.6071 161.324 26.3598L162.648 26.7279C162.425 27.1881 162.069 27.5677 161.583 27.863C161.094 28.1583 160.514 28.3078 159.838 28.3078H159.836ZM161.401 24.6648C161.362 24.2124 161.196 23.8481 160.899 23.5758C160.604 23.3035 160.244 23.1674 159.822 23.1674C159.616 23.1674 159.42 23.2038 159.24 23.2767C159.06 23.3495 158.901 23.4512 158.761 23.5815C158.623 23.7119 158.51 23.8691 158.422 24.0551C158.334 24.2392 158.282 24.4424 158.267 24.6668H161.399L161.401 24.6648ZM160.215 21.4494L159.225 21.1503L159.847 19.7794H161.288L160.217 21.4514L160.215 21.4494Z" fill="white"/>
<path d="M159.619 35.9045C159.098 35.9045 158.631 35.8144 158.215 35.6361C157.8 35.4578 157.449 35.2143 157.16 34.9094C156.871 34.6046 156.649 34.2518 156.495 33.8529C156.34 33.4541 156.264 33.0342 156.264 32.5952C156.264 32.1561 156.34 31.7247 156.495 31.3259C156.651 30.9271 156.871 30.5743 157.16 30.2694C157.449 29.9645 157.8 29.721 158.215 29.5427C158.631 29.3644 159.098 29.2743 159.619 29.2743C160.14 29.2743 160.606 29.3644 161.016 29.5427C161.426 29.721 161.776 29.9645 162.065 30.2694C162.355 30.5743 162.575 30.9271 162.73 31.3259C162.885 31.7247 162.962 32.1484 162.962 32.5952C162.962 33.0419 162.885 33.4541 162.73 33.8529C162.575 34.2518 162.357 34.6046 162.071 34.9094C161.786 35.2143 161.437 35.4578 161.022 35.6361C160.606 35.8144 160.139 35.9045 159.618 35.9045H159.619ZM157.947 32.5952C157.947 32.8808 157.989 33.1378 158.076 33.3717C158.162 33.6037 158.279 33.805 158.43 33.9757C158.579 34.1463 158.758 34.2786 158.961 34.3726C159.164 34.4665 159.384 34.5125 159.619 34.5125C159.855 34.5125 160.075 34.4665 160.278 34.3726C160.481 34.2786 160.658 34.1463 160.809 33.9757C160.96 33.805 161.077 33.6018 161.163 33.3659C161.249 33.1301 161.292 32.8693 161.292 32.5837C161.292 32.298 161.249 32.0506 161.163 31.8148C161.077 31.579 160.96 31.3757 160.809 31.2032C160.658 31.0325 160.481 30.9002 160.278 30.8063C160.075 30.7123 159.855 30.6663 159.619 30.6663C159.384 30.6663 159.164 30.7142 158.961 30.812C158.758 30.9098 158.579 31.044 158.43 31.2147C158.279 31.3853 158.162 31.5885 158.076 31.8263C157.989 32.0621 157.947 32.3191 157.947 32.5952Z" fill="white"/>
<path d="M94.6283 54.5201C94.1092 54.5201 93.6246 54.4338 93.1745 54.2632C92.7244 54.0925 92.3355 53.8528 92.008 53.5461C91.6805 53.2393 91.4257 52.8807 91.2399 52.4704C91.0561 52.0601 90.9641 51.6095 90.9641 51.1187C90.9641 50.6278 91.0771 50.1447 91.3012 49.7152C91.5272 49.2857 91.8394 48.9195 92.2436 48.6184C92.6458 48.3174 93.1266 48.0835 93.6859 47.9109C94.2452 47.7403 94.86 47.654 95.5285 47.654C96.0054 47.654 96.4728 47.6943 96.9306 47.7767C97.3883 47.8592 97.7925 47.9742 98.1487 48.1257V47.5102C98.1487 46.8008 97.9476 46.2543 97.5454 45.8709C97.1432 45.4893 96.5456 45.2976 95.7545 45.2976C95.1818 45.2976 94.6225 45.3992 94.0766 45.6044C93.5307 45.8095 92.9714 46.1105 92.3987 46.5055L91.5598 44.7646C92.937 43.85 94.4252 43.3917 96.0207 43.3917C97.6163 43.3917 98.7598 43.7714 99.6121 44.5287C100.464 45.2861 100.892 46.3828 100.892 47.817V51.157C100.892 51.4446 100.943 51.6479 101.045 51.7725C101.146 51.8952 101.315 51.9642 101.547 51.9777V54.313C101.083 54.4089 100.681 54.4568 100.34 54.4568C99.8209 54.4568 99.4225 54.3398 99.1428 54.1078C98.8632 53.8758 98.6889 53.5691 98.6219 53.1856L98.5606 52.5912C98.0836 53.2201 97.5033 53.6975 96.8214 54.0254C96.1395 54.3533 95.4097 54.5162 94.6321 54.5162L94.6283 54.5201ZM95.4059 52.5126C95.8694 52.5126 96.31 52.4302 96.7256 52.2672C97.1413 52.1042 97.465 51.8856 97.6986 51.6114C97.9994 51.3794 98.1487 51.1206 98.1487 50.833V49.604C97.8212 49.4813 97.4669 49.3816 97.0838 49.3068C96.7007 49.232 96.333 49.1937 95.9786 49.1937C95.268 49.1937 94.6896 49.3547 94.2394 49.6749C93.7893 49.9951 93.5633 50.4016 93.5633 50.8944C93.5633 51.3584 93.7395 51.7437 94.0958 52.0524C94.4501 52.3592 94.8868 52.5126 95.4059 52.5126Z" fill="white"/>
<path d="M120.107 54.315H117.364V48.2925C117.364 47.4316 117.217 46.8047 116.923 46.4078C116.63 46.0109 116.224 45.8134 115.705 45.8134C115.159 45.8134 114.648 46.0224 114.171 46.4384C113.694 46.8545 113.353 47.399 113.148 48.0663V54.315H110.405V48.2925C110.405 47.4316 110.258 46.8047 109.965 46.4078C109.672 46.0109 109.266 45.8134 108.747 45.8134C108.228 45.8134 107.707 46.0185 107.222 46.4289C106.737 46.8392 106.393 47.3779 106.188 48.0471V54.315H103.445V43.5797H105.921V45.566C106.316 44.87 106.86 44.3332 107.548 43.9574C108.237 43.5816 109.024 43.3937 109.911 43.3937C110.798 43.3937 111.507 43.6123 111.999 44.0494C112.489 44.4866 112.803 45.0253 112.941 45.6677C113.378 44.9295 113.93 44.3658 114.598 43.9785C115.267 43.5892 116.031 43.3937 116.891 43.3937C117.546 43.3937 118.084 43.5164 118.507 43.7618C118.931 44.0072 119.258 44.3293 119.49 44.7243C119.722 45.1212 119.883 45.5718 119.971 46.0761C120.059 46.5822 120.103 47.0942 120.103 47.6119V54.3111L120.107 54.315Z" fill="white"/>
<path d="M122.501 42.086V39.3615H125.244V42.086H122.501ZM122.501 54.3149V43.5796H125.244V54.3149H122.501Z" fill="white"/>
<path d="M137.686 54.315H134.943V48.2926C134.943 47.4317 134.794 46.8047 134.493 46.4078C134.193 46.0109 133.777 45.8134 133.244 45.8134C132.972 45.8134 132.693 45.869 132.405 45.9783C132.118 46.0876 131.85 46.241 131.597 46.4385C131.344 46.636 131.116 46.8718 130.911 47.146C130.707 47.4202 130.557 47.7193 130.461 48.0471V54.315H127.719V43.5797H130.195V45.5661C130.59 44.8835 131.164 44.3505 131.913 43.9689C132.664 43.5874 133.509 43.3956 134.451 43.3956C135.12 43.3956 135.665 43.5183 136.089 43.7638C136.512 44.0092 136.84 44.3313 137.071 44.7263C137.303 45.1232 137.464 45.5738 137.552 46.078C137.64 46.5842 137.684 47.0961 137.684 47.6138V54.3131L137.686 54.315Z" fill="white"/>
<path d="M150.046 54.315H147.303V48.2926C147.303 47.4451 147.146 46.822 146.832 46.4174C146.518 46.0148 146.076 45.8134 145.503 45.8134C145.258 45.8134 144.997 45.8691 144.725 45.9783C144.453 46.0876 144.193 46.241 143.948 46.4385C143.703 46.636 143.477 46.8718 143.272 47.146C143.067 47.4202 142.917 47.7193 142.821 48.0472V54.315H140.079V39.3596H142.821V45.5661C143.218 44.8701 143.752 44.3332 144.428 43.9574C145.105 43.5816 145.852 43.3937 146.669 43.3937C147.365 43.3937 147.932 43.5126 148.368 43.7523C148.805 43.992 149.146 44.3083 149.391 44.7052C149.636 45.1021 149.807 45.5527 149.903 46.057C149.998 46.5631 150.046 47.0808 150.046 47.6138V54.3131V54.315Z" fill="white"/>
<path d="M157.394 54.5201C156.52 54.5201 155.735 54.3706 155.04 54.0696C154.344 53.7685 153.755 53.3621 153.27 52.8501C152.785 52.3382 152.414 51.7476 152.155 51.0785C151.897 50.4093 151.766 49.7057 151.766 48.9675C151.766 48.2293 151.897 47.5064 152.155 46.8373C152.414 46.1681 152.785 45.5776 153.27 45.0656C153.755 44.5537 154.344 44.1472 155.04 43.8462C155.735 43.5452 156.52 43.3956 157.394 43.3956C158.267 43.3956 159.049 43.5452 159.736 43.8462C160.426 44.1472 161.012 44.5537 161.497 45.0656C161.981 45.5776 162.353 46.1681 162.611 46.8373C162.87 47.5064 163 48.2178 163 48.9675C163 49.7172 162.87 50.4093 162.611 51.0785C162.353 51.7476 161.983 52.3382 161.506 52.8501C161.027 53.3621 160.441 53.7685 159.746 54.0696C159.051 54.3706 158.265 54.5201 157.392 54.5201H157.394ZM154.59 48.9694C154.59 49.4468 154.661 49.8801 154.804 50.2713C154.948 50.6605 155.145 50.998 155.398 51.2856C155.651 51.5732 155.948 51.7937 156.289 51.9509C156.63 52.1081 156.997 52.1867 157.394 52.1867C157.79 52.1867 158.158 52.1081 158.499 51.9509C158.84 51.7937 159.137 51.5713 159.39 51.2856C159.642 50.998 159.84 50.6567 159.983 50.2617C160.127 49.8648 160.198 49.4296 160.198 48.9502C160.198 48.4709 160.127 48.0567 159.983 47.6598C159.84 47.2629 159.642 46.9217 159.39 46.636C159.137 46.3484 158.84 46.1279 158.499 45.9706C158.158 45.8134 157.788 45.7348 157.394 45.7348C156.999 45.7348 156.63 45.8173 156.289 45.9802C155.948 46.1432 155.651 46.3695 155.398 46.6571C155.145 46.9447 154.948 47.2859 154.804 47.6809C154.661 48.0778 154.59 48.5073 154.59 48.9713V48.9694Z" fill="white"/>
<path d="M74.8096 46.2314C74.8096 45.2689 74.9839 44.3179 75.3306 43.3764C75.6772 42.435 76.1848 41.5952 76.8514 40.8551C77.516 40.115 78.3301 39.5149 79.2935 39.0566C80.255 38.5984 81.3487 38.3683 82.5784 38.3683C84.0284 38.3683 85.2829 38.6866 86.3402 39.3231C87.3975 39.9597 88.1848 40.7899 88.7038 41.8119L86.3517 43.4339C86.1449 42.9891 85.892 42.6152 85.5971 42.3123C85.3002 42.0093 84.9822 41.7678 84.6432 41.5894C84.3042 41.4111 83.9479 41.2827 83.5782 41.2002C83.2086 41.1197 82.8466 41.0775 82.4903 41.0775C81.7203 41.0775 81.0518 41.2328 80.481 41.5434C79.9122 41.854 79.4372 42.2586 79.0617 42.7552C78.6844 43.2518 78.399 43.8136 78.2075 44.4444C78.0159 45.0752 77.9202 45.7003 77.9202 46.3215C77.9202 47.0175 78.0313 47.6867 78.2534 48.3309C78.4756 48.9751 78.7898 49.5427 79.1958 50.0297C79.6019 50.5186 80.0903 50.9117 80.6611 51.2069C81.23 51.5041 81.8563 51.6518 82.5363 51.6518C82.8906 51.6518 83.2603 51.6077 83.6453 51.5195C84.0303 51.4293 84.3961 51.2894 84.7447 51.0976C85.0933 50.9059 85.4132 50.6566 85.7101 50.3537C86.007 50.0508 86.2426 49.6845 86.4207 49.2531L88.9279 50.6969C88.6751 51.2894 88.3169 51.8109 87.8515 52.2634C87.386 52.7159 86.8593 53.0974 86.2751 53.408C85.6909 53.7187 85.0646 53.9564 84.3999 54.1194C83.7353 54.2824 83.0841 54.3629 82.4462 54.3629C81.3219 54.3629 80.2933 54.1271 79.3625 53.6516C78.4297 53.178 77.6271 52.5587 76.9548 51.7975C76.2806 51.0344 75.7558 50.1677 75.3784 49.1975C75.0011 48.2273 74.8134 47.2399 74.8134 46.2314H74.8096Z" fill="white"/>
<path d="M34.4637 0C15.4304 0 0 15.4462 0 34.499C0 40.8359 1.70853 46.7721 4.68697 51.8761C4.93788 51.7591 5.26159 51.4926 5.55081 51.4121C6.93947 51.0286 7.52558 52.2883 7.86078 52.2384C8.8836 51.09 10.2703 51.1647 11.2414 52.3477C12.134 51.2817 13.0936 51.0439 14.2678 51.8895C14.7849 51.2318 15.1929 50.6164 16.1506 50.7257C15.8805 49.2474 17.0317 48.7661 17.501 47.6771L17.2098 47.2476C16.8267 47.1632 16.4207 47.2514 16.0395 47.1459C15.486 46.9926 13.1415 45.336 13.515 44.8164C15.0378 44.059 16.3709 44.3466 17.9415 44.6956C18.3916 44.6035 18.587 43.8136 19.0371 43.4761C20.0791 42.6938 22.299 42.6229 23.5038 43.037C24.6664 43.4359 25.0246 44.5556 26.2715 44.8969C27.4342 45.2152 29.4434 44.5978 29.5775 45.9073C29.4664 46.8066 26.601 47.3473 25.8195 47.4987C25.7371 49.3126 27.7387 49.7996 26.5454 51.8166C28.1544 52.7293 28.1046 54.5374 26.624 55.5632C27.89 56.6292 27.6066 57.9867 26.3731 58.9185C26.9592 59.6222 27.2522 60.5866 26.8404 61.4571C26.7102 61.7351 26.2141 61.994 26.2524 62.2567C26.3003 62.5826 27.2082 62.9546 27.076 64.2507C26.9592 65.3954 25.7027 65.6945 25.6184 65.9974C25.5571 66.2179 25.9363 66.7701 25.9038 67.213C25.8865 67.4393 25.8157 67.6617 25.7065 67.8707C28.503 68.605 31.4393 68.9962 34.4656 68.9962C53.4989 68.9962 68.9293 53.5499 68.9293 34.4971C68.9293 15.4443 53.4989 0 34.4637 0ZM13.0036 41.8464C9.80298 43.0601 7.52941 44.732 4.68505 46.448C4.5414 46.5343 4.55289 46.7299 4.36518 46.448C3.86526 45.6983 3.16423 42.8913 2.94204 41.8943C-2.49384 17.5323 19.8856 -3.47234 43.8319 3.55095C45.2703 3.97277 46.6149 4.60933 48.0285 5.08675C48.0764 5.29766 47.8619 5.27849 47.7067 5.32451C46.2548 5.76742 44.5157 5.99175 42.991 6.42315C37.31 8.0299 26.2869 12.4552 23.4674 17.9024C21.9447 20.8436 22.9119 22.3545 25.107 24.3946C27.4802 26.6014 34.0021 30.3997 31.445 34.2881C28.7194 38.4335 17.6255 40.0939 13.0074 41.8444L13.0036 41.8464ZM47.814 64.0896C45.3929 65.1806 40.0336 66.9427 37.4613 66.8161C34.4598 66.6685 32.1633 61.0679 31.6423 58.5696C30.0774 51.0593 33.2053 44.9563 40.1237 41.8502C44.4276 39.9175 54.1214 38.5734 52.273 31.6173C50.4151 24.6285 41.3419 22.7533 36.2584 18.886C33.5041 16.7903 32.5081 15.0053 35.7087 12.7083C39.8229 9.75744 45.6055 8.13727 50.371 6.53053C50.8097 6.53436 51.4781 7.02904 51.888 7.2783C54.5255 8.87929 57.0596 11.2472 59.0707 13.5787C73.1087 29.8571 67.2686 55.3196 47.814 64.0877V64.0896Z" fill="white"/>
</g>
<defs>
<clipPath id="clip0_6_390">
<rect width="163" height="69" fill="white"/>
</clipPath>
</defs>
</svg>
