<svg width="175" height="132" viewBox="0 0 175 132" fill="none" xmlns="http://www.w3.org/2000/svg">
<path d="M2.25879 0.471436V12.758C2.25879 46.7509 20.2607 76.4844 47.0598 93.0304V131.528H169.245V115.146C169.245 93.358 125.828 82.382 104.079 82.382H102.043C63.3511 82.382 30.7685 49.6178 30.7685 12.758V0.471436M104.079 0.471436C95.4379 0.471436 87.1504 3.92337 81.04 10.0679C74.9296 16.2123 71.4968 24.546 71.4968 33.2357C71.4968 41.9253 74.9296 50.259 81.04 56.4035C87.1504 62.548 95.4379 65.9999 104.079 65.9999C112.721 65.9999 121.008 62.548 127.119 56.4035C133.229 50.259 136.662 41.9253 136.662 33.2357C136.662 24.546 133.229 16.2123 127.119 10.0679C121.008 3.92337 112.721 0.471436 104.079 0.471436Z" fill="#69BB8A"/>
</svg>
